<svg width="1027" height="247" viewBox="0 0 1027 247" fill="none" xmlns="http://www.w3.org/2000/svg">
<path d="M52.5761 97.7648C49.1455 84.9616 35.9854 77.3636 23.1822 80.7942C10.379 84.2248 2.78105 97.3849 6.21166 110.188L36.4935 223.201C39.9241 236.005 53.0842 243.603 65.8874 240.172C78.6905 236.741 86.2885 223.581 82.8579 210.778L52.5761 97.7648Z" fill="#0D6F72"/>
<path d="M192.599 110.188C196.03 97.3844 188.432 84.2243 175.629 80.7937C162.825 77.3631 149.665 84.9611 146.235 97.7643L115.953 210.778C112.522 223.581 120.12 236.741 132.923 240.171C145.727 243.602 158.887 236.004 162.317 223.201L192.599 110.188Z" fill="#C07000"/>
<path d="M99.4053 76C120.392 76 137.405 58.9868 137.405 38C137.405 17.0132 120.392 0 99.4053 0C78.4185 0 61.4053 17.0132 61.4053 38C61.4053 58.9868 78.4185 76 99.4053 76Z" fill="#C07000"/>
<path d="M99.4053 59C111.003 59 120.405 49.598 120.405 38C120.405 26.402 111.003 17 99.4053 17C87.8073 17 78.4053 26.402 78.4053 38C78.4053 49.598 87.8073 59 99.4053 59Z" fill="#F5A623"/>
<path d="M99.4053 47C104.376 47 108.405 42.9706 108.405 38C108.405 33.0294 104.376 29 99.4053 29C94.4347 29 90.4053 33.0294 90.4053 38C90.4053 42.9706 94.4347 47 99.4053 47Z" fill="#FFF4E0"/>
<path d="M290.401 103.373C290.038 99.7066 288.477 96.8581 285.72 94.8278C282.962 92.7975 279.22 91.7823 274.492 91.7823C271.28 91.7823 268.568 92.2369 266.356 93.146C264.144 94.0247 262.447 95.252 261.265 96.8278C260.114 98.4035 259.538 100.191 259.538 102.191C259.477 103.858 259.826 105.313 260.583 106.555C261.371 107.797 262.447 108.873 263.811 109.782C265.174 110.661 266.75 111.434 268.538 112.1C270.326 112.737 272.235 113.282 274.265 113.737L282.629 115.737C286.689 116.646 290.417 117.858 293.811 119.373C297.204 120.888 300.144 122.752 302.629 124.964C305.114 127.176 307.038 129.782 308.401 132.782C309.795 135.782 310.508 139.222 310.538 143.1C310.508 148.797 309.053 153.737 306.174 157.919C303.326 162.07 299.204 165.297 293.811 167.6C288.447 169.873 281.977 171.01 274.401 171.01C266.886 171.01 260.341 169.858 254.765 167.555C249.22 165.252 244.886 161.843 241.765 157.328C238.674 152.782 237.053 147.161 236.901 140.464H255.947C256.159 143.585 257.053 146.191 258.629 148.282C260.235 150.343 262.371 151.904 265.038 152.964C267.735 153.994 270.78 154.51 274.174 154.51C277.508 154.51 280.401 154.025 282.856 153.055C285.341 152.085 287.265 150.737 288.629 149.01C289.992 147.282 290.674 145.297 290.674 143.055C290.674 140.964 290.053 139.207 288.811 137.782C287.598 136.358 285.811 135.146 283.447 134.146C281.114 133.146 278.25 132.237 274.856 131.419L264.72 128.873C256.871 126.964 250.674 123.979 246.129 119.919C241.583 115.858 239.326 110.388 239.356 103.51C239.326 97.8732 240.826 92.949 243.856 88.7369C246.917 84.5247 251.114 81.2369 256.447 78.8732C261.78 76.5096 267.841 75.3278 274.629 75.3278C281.538 75.3278 287.568 76.5096 292.72 78.8732C297.901 81.2369 301.932 84.5247 304.811 88.7369C307.689 92.949 309.174 97.8278 309.265 103.373H290.401ZM346.271 171.055C339.089 171.055 332.907 169.6 327.726 166.691C322.574 163.752 318.604 159.6 315.816 154.237C313.029 148.843 311.635 142.464 311.635 135.1C311.635 127.919 313.029 121.616 315.816 116.191C318.604 110.767 322.529 106.54 327.589 103.51C332.68 100.479 338.65 98.9641 345.498 98.9641C350.104 98.9641 354.392 99.7066 358.362 101.191C362.362 102.646 365.847 104.843 368.816 107.782C371.816 110.722 374.15 114.419 375.816 118.873C377.483 123.297 378.316 128.479 378.316 134.419V139.737H319.362V127.737H360.089C360.089 124.949 359.483 122.479 358.271 120.328C357.059 118.176 355.377 116.494 353.226 115.282C351.104 114.04 348.635 113.419 345.816 113.419C342.877 113.419 340.271 114.1 337.998 115.464C335.756 116.797 333.998 118.6 332.726 120.873C331.453 123.116 330.801 125.616 330.771 128.373V139.782C330.771 143.237 331.407 146.222 332.68 148.737C333.983 151.252 335.816 153.191 338.18 154.555C340.544 155.919 343.347 156.6 346.589 156.6C348.741 156.6 350.71 156.297 352.498 155.691C354.286 155.085 355.816 154.176 357.089 152.964C358.362 151.752 359.332 150.267 359.998 148.51L377.907 149.691C376.998 153.994 375.135 157.752 372.316 160.964C369.529 164.146 365.923 166.631 361.498 168.419C357.104 170.176 352.029 171.055 346.271 171.055ZM413.811 171.055C406.629 171.055 400.447 169.6 395.266 166.691C390.114 163.752 386.144 159.6 383.356 154.237C380.569 148.843 379.175 142.464 379.175 135.1C379.175 127.919 380.569 121.616 383.356 116.191C386.144 110.767 390.069 106.54 395.129 103.51C400.22 100.479 406.19 98.9641 413.038 98.9641C417.644 98.9641 421.932 99.7066 425.902 101.191C429.902 102.646 433.387 104.843 436.356 107.782C439.356 110.722 441.69 114.419 443.356 118.873C445.023 123.297 445.856 128.479 445.856 134.419V139.737H386.902V127.737H427.629C427.629 124.949 427.023 122.479 425.811 120.328C424.599 118.176 422.917 116.494 420.766 115.282C418.644 114.04 416.175 113.419 413.356 113.419C410.417 113.419 407.811 114.1 405.538 115.464C403.296 116.797 401.538 118.6 400.266 120.873C398.993 123.116 398.341 125.616 398.311 128.373V139.782C398.311 143.237 398.947 146.222 400.22 148.737C401.523 151.252 403.356 153.191 405.72 154.555C408.084 155.919 410.887 156.6 414.129 156.6C416.281 156.6 418.25 156.297 420.038 155.691C421.826 155.085 423.356 154.176 424.629 152.964C425.902 151.752 426.872 150.267 427.538 148.51L445.447 149.691C444.538 153.994 442.675 157.752 439.856 160.964C437.069 164.146 433.463 166.631 429.038 168.419C424.644 170.176 419.569 171.055 413.811 171.055ZM467.078 149.6L467.124 126.373H469.942L492.306 99.8732H514.533L484.487 134.964H479.896L467.078 149.6ZM449.533 169.691V76.6005H468.896V169.691H449.533ZM493.169 169.691L472.624 139.282L485.533 125.6L515.851 169.691H493.169ZM534.436 129.328V169.691H515.073V76.6005H533.891V112.191H534.709C536.285 108.07 538.83 104.843 542.346 102.51C545.861 100.146 550.27 98.9641 555.573 98.9641C560.421 98.9641 564.649 100.025 568.255 102.146C571.891 104.237 574.709 107.252 576.709 111.191C578.739 115.1 579.739 119.782 579.709 125.237V169.691H560.346V128.691C560.376 124.388 559.285 121.04 557.073 118.646C554.891 116.252 551.83 115.055 547.891 115.055C545.255 115.055 542.921 115.616 540.891 116.737C538.891 117.858 537.315 119.494 536.164 121.646C535.043 123.767 534.467 126.328 534.436 129.328ZM617.533 171.055C610.473 171.055 604.367 169.555 599.215 166.555C594.094 163.525 590.139 159.313 587.351 153.919C584.564 148.494 583.17 142.207 583.17 135.055C583.17 127.843 584.564 121.54 587.351 116.146C590.139 110.722 594.094 106.51 599.215 103.51C604.367 100.479 610.473 98.9641 617.533 98.9641C624.594 98.9641 630.685 100.479 635.806 103.51C640.958 106.51 644.927 110.722 647.715 116.146C650.503 121.54 651.897 127.843 651.897 135.055C651.897 142.207 650.503 148.494 647.715 153.919C644.927 159.313 640.958 163.525 635.806 166.555C630.685 169.555 624.594 171.055 617.533 171.055ZM617.624 156.055C620.836 156.055 623.518 155.146 625.67 153.328C627.821 151.479 629.442 148.964 630.533 145.782C631.655 142.6 632.215 138.979 632.215 134.919C632.215 130.858 631.655 127.237 630.533 124.055C629.442 120.873 627.821 118.358 625.67 116.51C623.518 114.661 620.836 113.737 617.624 113.737C614.382 113.737 611.654 114.661 609.442 116.51C607.261 118.358 605.609 120.873 604.488 124.055C603.397 127.237 602.851 130.858 602.851 134.919C602.851 138.979 603.397 142.6 604.488 145.782C605.609 148.964 607.261 151.479 609.442 153.328C611.654 155.146 614.382 156.055 617.624 156.055Z" fill="#1A0F00"/>
<path d="M670.346 169.691L643.71 76.6005H665.21L680.619 141.282H681.391L698.391 76.6005H716.801L733.755 141.419H734.573L749.982 76.6005H771.482L744.846 169.691H725.664L707.937 108.828H707.21L689.528 169.691H670.346ZM772.693 169.691V99.8732H792.056V169.691H772.693ZM782.42 90.8732C779.541 90.8732 777.072 89.9187 775.011 88.0096C772.981 86.0702 771.966 83.752 771.966 81.055C771.966 78.3884 772.981 76.1005 775.011 74.1914C777.072 72.252 779.541 71.2823 782.42 71.2823C785.299 71.2823 787.753 72.252 789.784 74.1914C791.844 76.1005 792.875 78.3884 792.875 81.055C792.875 83.752 791.844 86.0702 789.784 88.0096C787.753 89.9187 785.299 90.8732 782.42 90.8732ZM835.744 99.8732V114.419H793.699V99.8732H835.744ZM803.244 83.146H822.608V148.237C822.608 150.025 822.881 151.419 823.426 152.419C823.971 153.388 824.729 154.07 825.699 154.464C826.699 154.858 827.85 155.055 829.153 155.055C830.062 155.055 830.971 154.979 831.881 154.828C832.79 154.646 833.487 154.51 833.971 154.419L837.017 168.828C836.047 169.131 834.684 169.479 832.926 169.873C831.168 170.297 829.032 170.555 826.517 170.646C821.85 170.828 817.759 170.207 814.244 168.782C810.759 167.358 808.047 165.146 806.108 162.146C804.168 159.146 803.214 155.358 803.244 150.782V83.146ZM860.261 129.328V169.691H840.898V76.6005H859.716V112.191H860.534C862.11 108.07 864.655 104.843 868.171 102.51C871.686 100.146 876.095 98.9641 881.398 98.9641C886.246 98.9641 890.474 100.025 894.08 102.146C897.716 104.237 900.534 107.252 902.534 111.191C904.564 115.1 905.564 119.782 905.534 125.237V169.691H886.171V128.691C886.201 124.388 885.11 121.04 882.898 118.646C880.716 116.252 877.655 115.055 873.716 115.055C871.08 115.055 868.746 115.616 866.716 116.737C864.716 117.858 863.14 119.494 861.989 121.646C860.868 123.767 860.292 126.328 860.261 129.328ZM928.222 169.691H907.131L939.267 76.6005H964.631L996.722 169.691H975.631L952.313 97.8732H951.586L928.222 169.691ZM926.904 133.1H976.722V148.464H926.904V133.1ZM1018.65 76.6005V169.691H998.966V76.6005H1018.65Z" fill="#0D6F72"/>
</svg>
