<svg width="320" height="320" viewBox="0 0 320 320" fill="none" xmlns="http://www.w3.org/2000/svg">
<rect width="320" height="320" fill="#FFF8F0"/>
<path d="M113.171 134.573C109.74 121.77 96.5801 114.172 83.7769 117.603C70.9738 121.033 63.3758 134.193 66.8064 146.997L97.0882 260.01C100.519 272.813 113.679 280.411 126.482 276.981C139.285 273.55 146.883 260.39 143.453 247.587L113.171 134.573Z" fill="#0D6F72"/>
<path d="M253.194 146.996C256.624 134.193 249.026 121.033 236.223 117.602C223.42 114.172 210.26 121.77 206.829 134.573L176.548 247.586C173.117 260.389 180.715 273.549 193.518 276.98C206.321 280.411 219.481 272.813 222.912 260.009L253.194 146.996Z" fill="#C07000"/>
<path d="M160 112.809C180.987 112.809 198 95.7954 198 74.8086C198 53.8218 180.987 36.8086 160 36.8086C139.013 36.8086 122 53.8218 122 74.8086C122 95.7954 139.013 112.809 160 112.809Z" fill="#C07000"/>
<path d="M160 95.8086C171.598 95.8086 181 86.4066 181 74.8086C181 63.2106 171.598 53.8086 160 53.8086C148.402 53.8086 139 63.2106 139 74.8086C139 86.4066 148.402 95.8086 160 95.8086Z" fill="#F5A623"/>
<path d="M160 83.8086C164.971 83.8086 169 79.7792 169 74.8086C169 69.838 164.971 65.8086 160 65.8086C155.029 65.8086 151 69.838 151 74.8086C151 79.7792 155.029 83.8086 160 83.8086Z" fill="#FFF4E0"/>
</svg>
