<svg width="328" height="328" viewBox="0 0 328 328" fill="none" xmlns="http://www.w3.org/2000/svg">
<rect x="4" y="4" width="320" height="320" rx="80" fill="#FFF8F0"/>
<rect x="4" y="4" width="320" height="320" rx="80" stroke="url(#paint0_linear_2804_383)" stroke-width="8"/>
<path d="M117.171 138.573C113.74 125.77 100.58 118.172 87.7769 121.603C74.9738 125.033 67.3758 138.193 70.8064 150.997L101.088 264.01C104.519 276.813 117.679 284.411 130.482 280.981C143.285 277.55 150.883 264.39 147.453 251.587L117.171 138.573Z" fill="#0D6F72"/>
<path d="M257.194 150.996C260.624 138.193 253.026 125.033 240.223 121.602C227.42 118.172 214.26 125.77 210.829 138.573L180.548 251.586C177.117 264.389 184.715 277.549 197.518 280.98C210.321 284.411 223.481 276.813 226.912 264.009L257.194 150.996Z" fill="#C07000"/>
<path d="M164 116.809C184.987 116.809 202 99.7954 202 78.8086C202 57.8218 184.987 40.8086 164 40.8086C143.013 40.8086 126 57.8218 126 78.8086C126 99.7954 143.013 116.809 164 116.809Z" fill="#C07000"/>
<path d="M164 99.8086C175.598 99.8086 185 90.4066 185 78.8086C185 67.2106 175.598 57.8086 164 57.8086C152.402 57.8086 143 67.2106 143 78.8086C143 90.4066 152.402 99.8086 164 99.8086Z" fill="#F5A623"/>
<path d="M164 87.8086C168.971 87.8086 173 83.7792 173 78.8086C173 73.838 168.971 69.8086 164 69.8086C159.029 69.8086 155 73.838 155 78.8086C155 83.7792 159.029 87.8086 164 87.8086Z" fill="#FFF4E0"/>
<defs>
<linearGradient id="paint0_linear_2804_383" x1="4" y1="4" x2="227" y2="324" gradientUnits="userSpaceOnUse">
<stop stop-color="#0D6F72"/>
<stop offset="0.634615" stop-color="#4A7576"/>
<stop offset="1" stop-color="#082F30"/>
</linearGradient>
</defs>
</svg>
